<svg width="55" height="39" viewBox="0 0 55 39" fill="none" xmlns="http://www.w3.org/2000/svg">
<path fill-rule="evenodd" clip-rule="evenodd" d="M17.0321 1.35535C17.1897 0.987665 17.5512 0.749268 17.9512 0.749268H36.9931C37.3931 0.749268 37.7547 0.987664 37.9122 1.35535L39.9148 6.02792H51.3935C53.0503 6.02792 54.3935 7.37106 54.3935 9.02792V35.7558C54.3935 37.4126 53.0503 38.7558 51.3935 38.7558H3.55084C1.89398 38.7558 0.550842 37.4126 0.550842 35.7558V9.02792C0.550842 7.37106 1.89399 6.02792 3.55084 6.02792H15.0295L17.0321 1.35535ZM35.0017 22.3918C35.0017 26.5503 31.6306 29.9214 27.4722 29.9214C23.3137 29.9214 19.9426 26.5503 19.9426 22.3918C19.9426 18.2334 23.3137 14.8623 27.4722 14.8623C31.6306 14.8623 35.0017 18.2334 35.0017 22.3918ZM37.5017 22.3918C37.5017 27.931 33.0113 32.4214 27.4722 32.4214C21.933 32.4214 17.4426 27.931 17.4426 22.3918C17.4426 16.8527 21.933 12.3623 27.4722 12.3623C33.0113 12.3623 37.5017 16.8527 37.5017 22.3918ZM43.8361 10.2509H38.5574V12.3624H43.8361V10.2509Z" fill="white"/>
</svg>
